
Coldplay 26 October 2011  

American Express UNSTAGED
at Plaza de Toros de Las Ventas in Madrid

AVI transcoded from mp4 (YouTube & VEVO)

Webcast directed by   Anton Corbijn
Creative director     Phil Harvey
Sound engi            Dan Green

includes a 9 minute interview with the director on their
influences, inspirations and Monty Python

-------------------------------------------------------------

concert songs and timepoints ~ partial list

hurts like heaven  11:20
yellow  15:45
in my place  20:00

the scientist  32:30
violet hill  38:30
god put a smile  42:00

paradise  46:39
up in flames  51:44
til kingdom come  55:10
politik  59:25

viva la vida  1:04:32
clocks  1:18:46
rehab (for Amy)  1:23:00

fix you  1:24:04
every teardrop  1:29:40


-------------------------------------------------------------

Complete name            : Coldplay - UNSTAGED (Full Show Rebroadcast).avi
Format                           : AVI 
File size                        : 2,713,965,990
Duration                         : 1hr 40:38
Overall bit rate                 : 3596 Kbps

Video
ID                               : 0
Format                           : MPEG-4 Visual
Format profile                   : Advanced Simple@L5
Format settings, BVOP            : 2
Format settings, QPel            : No
Format settings, GMC             : No warppoints
Format settings, Matrix          : Default (H.263)
Codec ID                         : XVID
Codec ID/Hint                    : XviD
Duration                         : 1h 40mn
Bit rate                         : 3456 Kbps
Width x Height                   : 1280 x 720 pixels
                        
Display aspect ratio             : 16:9
Frame rate                       : 29.970 fps
Color space                      : YUV
Chroma subsampling               : 4:2:0
Bit depth                        : 8 bits
Scan type                        : Progressive
Compression mode                 : Lossy
Bits/(Pixel*Frame)               : 0.125
Stream size                      : 2.43 GiB (96%)
Writing library                  : XviD 63

Audio
ID                               : 1
Format                           : AC-3
Format/Info                      : Audio Coding 3
Mode extension                   : CM (complete main)
Codec ID                         : 2000
Duration                         : 1h 40mn
Bit rate mode                    : Constant
Bit rate                         : 128 Kbps
Channel(s)                       : 2 channels
Channel positions                : Front: L R
Sampling rate                    : 44.1 KHz
Bit depth                        : 16 bits
Compression mode                 : Lossy
Stream size                      : 92.1 MiB (4%)
Alignment                        : Aligned on interleaves
Interleave, duration             : 35 ms (1.04 video frame)
